HIERARCHY
ROOT Hips
{
 OFFSET 0.000000 0.000000 0.000000
 CHANNELS 6 Xposition Yposition Zposition Yrotation Xrotation Zrotation
 JOINT Chest
 {
  OFFSET 0.000000 9.585900 0.002600
  CHANNELS 3 Yrotation Xrotation Zrotation
  JOINT Chest2
  {
   OFFSET 0.000000 9.601200 -0.005300
   CHANNELS 3 Yrotation Xrotation Zrotation
   JOINT Chest3
   {
    OFFSET 0.000000 9.561800 0.000000
    CHANNELS 3 Yrotation Xrotation Zrotation
    JOINT Chest4
    {
     OFFSET 0.000000 9.552100 0.000000
     CHANNELS 3 Yrotation Xrotation Zrotation
     JOINT Neck
     {
      OFFSET 0.000000 14.453000 0.000000
      CHANNELS 3 Yrotation Xrotation Zrotation
      JOINT Head
      {
       OFFSET 0.000000 8.936500 -0.011300
       CHANNELS 3 Yrotation Xrotation Zrotation
       End Site
       {
        OFFSET 0.000000 17.073600 -0.006000
       }
      }
     }
     JOINT RightCollar
     {
      OFFSET -2.921100 9.558500 0.000000
      CHANNELS 3 Yrotation Xrotation Zrotation
      JOINT RightShoulder
      {
       OFFSET -13.519700 0.000000 0.000000
       CHANNELS 3 Yrotation Xrotation Zrotation
       JOINT RightElbow
       {
        OFFSET 0.000000 -29.696600 0.000000
        CHANNELS 3 Yrotation Xrotation Zrotation
        JOINT RightWrist
        {
         OFFSET 0.000000 -24.004700 0.000000
         CHANNELS 3 Yrotation Xrotation Zrotation
         End Site
         {
          OFFSET 0.000000 -17.728500 0.000000
         }
        }
       }
      }
     }
     JOINT LeftCollar
     {
      OFFSET 2.921100 9.558500 0.000000
      CHANNELS 3 Yrotation Xrotation Zrotation
      JOINT LeftShoulder
      {
       OFFSET 13.519700 0.000000 0.000000
       CHANNELS 3 Yrotation Xrotation Zrotation
       JOINT LeftElbow
       {
        OFFSET 0.000000 -29.696600 0.000000
        CHANNELS 3 Yrotation Xrotation Zrotation
        JOINT LeftWrist
        {
         OFFSET 0.000000 -24.004700 0.000000
         CHANNELS 3 Yrotation Xrotation Zrotation
         End Site
         {
          OFFSET 0.000000 -17.728500 0.000000
         }
        }
       }
      }
     }
    }
   }
  }
 }
 JOINT RightHip
 {
  OFFSET -7.771700 -0.012900 -0.001300
  CHANNELS 3 Yrotation Xrotation Zrotation
  JOINT RightKnee
  {
   OFFSET 0.000000 -40.869800 0.001200
   CHANNELS 3 Yrotation Xrotation Zrotation
   JOINT RightAnkle
   {
    OFFSET 0.000000 -39.717900 0.002100
    CHANNELS 3 Yrotation Xrotation Zrotation
    JOINT RightToe
    {
     OFFSET 0.000000 -4.965400 11.033500
     CHANNELS 3 Yrotation Xrotation Zrotation
     End Site
     {
      OFFSET 0.000000 -1.423100 5.872300
     }
    }
   }
  }
 }
 JOINT LeftHip
 {
  OFFSET 7.771700 -0.012900 -0.001300
  CHANNELS 3 Yrotation Xrotation Zrotation
  JOINT LeftKnee
  {
   OFFSET 0.000000 -40.869800 0.001200
   CHANNELS 3 Yrotation Xrotation Zrotation
   JOINT LeftAnkle
   {
    OFFSET 0.000000 -39.717900 0.002100
    CHANNELS 3 Yrotation Xrotation Zrotation
    JOINT LeftToe
    {
     OFFSET 0.000000 -4.965400 11.033500
     CHANNELS 3 Yrotation Xrotation Zrotation
     End Site
     {
      OFFSET 0.000000 -1.423100 5.872300
     }
    }
   }
  }
 }
}
MOTION
Frames: 14
Frame Time: 0.008333
-34.235853 50.744736 41.803283 177.510577 -35.717157 -9.584005 0.305498 14.036177 3.915528 0.098680 8.025052 2.220508 0.168617 10.042134 2.775261 0.104892 8.013445 2.229436 5.987980 19.165572 -1.994215 6.949717 -5.193828 -3.527242 0.936789 1.924854 -1.628905 -16.881589 -5.574711 6.993118 35.876621 -74.346914 -22.130707 10.922371 -4.706847 -12.919237 -8.329005 3.942744 -3.437004 7.025951 -1.976382 -3.673046 -68.483206 -76.159423 74.480621 11.417811 -14.799988 1.109663 -10.068812 -29.573454 2.151018 37.122244 81.972573 32.396681 -2.263223 -15.135588 5.140071 -0.016593 0.907989 -1.154382 -11.816103 -44.833558 13.671449 169.377148 77.173221 166.008167 -1.963085 -18.555216 0.610915 -0.043536 0.032525 -0.023549
-34.219497 50.741938 41.828753 177.373560 -35.575157 -9.572256 0.399605 13.958486 3.988717 0.102658 7.995542 2.213154 0.182009 9.998791 2.763899 0.100424 7.989859 2.225917 6.016718 19.165245 -1.943931 6.965311 -5.182122 -3.468041 0.914836 1.926809 -1.643310 -16.870906 -5.514347 7.035345 35.938336 -74.329923 -22.183773 10.918368 -4.723555 -12.820142 -8.324272 3.954267 -3.423749 7.004508 -1.976063 -3.662437 -68.622305 -76.048697 74.589010 11.447028 -14.847916 1.123092 -10.328824 -29.768510 2.337852 37.057964 82.017782 32.320792 -2.052614 -15.196067 4.898417 -0.048438 0.839096 -0.918857 -11.802699 -44.972958 13.845850 169.300583 77.184153 165.911414 -1.995141 -18.554610 0.669693 -0.085573 0.049931 -0.043068
-34.203302 50.731911 41.864199 177.204668 -35.343843 -9.546881 0.523109 13.786076 4.069232 0.102870 7.963132 2.205451 0.191879 9.954135 2.753982 0.090806 7.960964 2.219789 6.040894 19.163194 -1.900105 6.962356 -5.164728 -3.447717 0.902036 1.930102 -1.653081 -16.892815 -5.403001 7.089886 36.033282 -74.307683 -22.207434 10.946056 -4.839708 -12.733202 -8.320225 3.949676 -3.408662 6.968964 -1.958014 -3.643315 -68.738853 -75.963200 74.720986 11.429261 -14.897003 1.116099 -10.560574 -30.160727 2.605539 36.624118 82.198448 31.931677 -1.910581 -14.998975 4.688736 0.013180 0.593356 -0.745579 -11.820944 -45.205702 14.050120 169.162349 77.191177 165.741518 -1.970562 -18.574548 0.728122 -0.176475 0.092398 -0.083049
-34.194450 50.725071 41.890653 177.093343 -35.138397 -9.517591 0.608954 13.642487 4.115463 0.129130 7.968977 2.193265 0.161910 9.871276 2.758224 0.093441 7.929775 2.207661 6.056232 19.159764 -1.862401 6.969631 -5.177385 -3.388733 0.877789 1.897665 -1.699246 -16.903911 -5.286862 7.150821 36.143414 -74.296629 -22.266137 10.969778 -4.941834 -12.586875 -8.327772 3.943179 -3.396550 6.901699 -1.971143 -3.603543 -68.731233 -75.857494 74.768943 11.410204 -14.955628 1.111232 -10.794905 -30.557220 2.873177 36.149707 82.437489 31.519162 -1.840092 -14.737020 4.462925 0.110340 0.316974 -0.578776 -11.815388 -45.420170 14.187858 169.197231 77.203311 165.770216 -2.005683 -18.567150 0.768751 -0.176471 0.105872 -0.086929
-34.193513 50.724177 41.901944 177.064162 -34.993326 -9.499889 0.673149 13.616633 4.127529 0.088848 7.863137 2.190670 0.179489 9.853711 2.740886 0.082589 7.894172 2.211201 6.067585 19.155235 -1.827472 6.973448 -5.198592 -3.335674 0.850878 1.890326 -1.710202 -16.905491 -5.222370 7.182330 36.245973 -74.278314 -22.324462 11.006486 -5.064285 -12.398637 -8.354284 3.894952 -3.400107 6.896938 -1.918623 -3.559271 -68.929884 -75.728640 74.985454 11.392080 -15.025186 1.105098 -11.049583 -30.879285 3.103138 35.968317 82.673324 31.396942 -1.831494 -14.501395 4.254913 0.201200 0.077117 -0.447504 -11.813899 -45.571254 14.250697 169.223825 77.210899 165.787996 -2.049872 -18.547210 0.805173 -0.171409 0.098475 -0.080861
-34.204075 50.726931 41.898318 177.135208 -34.893953 -9.488121 0.645633 13.619014 4.082009 0.053815 7.788756 2.191065 0.202952 9.841273 2.721079 0.071817 7.856237 2.213891 6.075549 19.147149 -1.792453 6.971371 -5.215762 -3.297239 0.816375 1.872862 -1.714273 -16.904988 -5.153385 7.210069 36.416253 -74.267626 -22.446253 11.053370 -5.193346 -12.190972 -8.385594 3.885567 -3.383867 6.883499 -1.923224 -3.529687 -69.088785 -75.595460 75.169994 11.380000 -15.100719 1.093525 -11.323918 -31.112400 3.236381 36.043574 82.866713 31.526739 -1.784156 -14.340030 4.089419 0.223400 -0.084978 -0.378812 -11.819798 -45.676227 14.229816 169.198340 77.206417 165.729390 -2.126215 -18.508974 0.864540 -0.164978 0.066202 -0.066514
-34.220123 50.729234 41.886416 177.237664 -34.803107 -9.484114 0.592807 13.620072 4.024918 0.077861 7.791262 2.180372 0.171522 9.766706 2.725669 0.062458 7.821472 2.212122 6.083884 19.133822 -1.760947 6.967765 -5.236121 -3.260726 0.780851 1.843271 -1.716958 -16.899747 -5.075216 7.233416 36.689358 -74.262940 -22.665805 11.100807 -5.322533 -11.992023 -8.422170 3.869152 -3.363539 6.866597 -1.944146 -3.499844 -69.175379 -75.479183 75.287648 11.378263 -15.186042 1.069746 -11.604849 -31.281184 3.308679 36.237789 83.005327 31.767372 -1.668053 -14.260143 3.963672 0.196139 -0.160518 -0.362088 -11.843363 -45.765590 14.215179 169.336206 77.206089 165.784043 -2.159841 -18.493964 0.982664 -0.192222 0.060355 -0.079908
-34.240488 50.730215 41.866986 177.390260 -34.712648 -9.504400 0.502109 13.627964 3.964284 0.085894 7.772424 2.173952 0.143883 9.711833 2.730160 0.095326 7.775600 2.167517 6.071007 19.128656 -1.685924 6.961156 -5.257236 -3.225453 0.712356 1.819766 -1.678289 -16.886724 -5.019169 7.235079 36.985159 -74.235729 -22.903946 11.143325 -5.447901 -11.812480 -8.492970 3.866138 -3.305018 6.870649 -1.926329 -3.478756 -69.391820 -75.400215 75.512129 11.385796 -15.281695 1.030487 -11.921670 -31.393304 3.325625 36.473965 83.100017 32.049579 -1.478147 -14.240793 3.869556 0.116721 -0.179021 -0.391836 -11.915064 -45.850166 14.192280 169.626528 77.206161 165.997712 -2.205188 -18.475728 1.074257 -0.175077 0.040587 -0.069234
-34.261528 50.728685 41.842658 177.516517 -34.619572 -9.522403 0.432623 13.627536 3.918273 0.082557 7.741671 2.170828 0.108193 9.665770 2.739084 0.102653 7.763279 2.159492 6.081110 19.104025 -1.673569 6.947054 -5.252664 -3.199499 0.690701 1.766661 -1.696798 -16.879152 -4.965654 7.236396 37.418321 -74.180127 -23.264645 11.184706 -5.575635 -11.660921 -8.520635 3.822735 -3.301665 6.856302 -1.956386 -3.453256 -69.376393 -75.335075 75.511594 11.400563 -15.375898 0.984888 -12.211715 -31.476288 3.310355 36.772767 83.180010 32.409337 -1.283725 -14.281255 3.784545 0.045007 -0.156884 -0.427218 -11.999251 -45.934931 14.199713 169.995431 77.204407 166.281901 -2.222371 -18.471256 1.161706 -0.169547 0.027986 -0.065943
-34.282300 50.722020 41.817911 177.632585 -34.494774 -9.545266 0.363911 13.592710 3.885899 0.080438 7.711228 2.167258 0.106227 9.629672 2.731546 0.082202 7.741537 2.170677 6.090394 19.078273 -1.661901 6.938388 -5.286325 -3.164507 0.674884 1.711516 -1.715752 -16.869742 -4.926848 7.219871 37.863182 -74.107412 -23.630344 11.229312 -5.710962 -11.541920 -8.546185 3.773398 -3.299478 6.838546 -1.996879 -3.432784 -69.289692 -75.284150 75.436068 11.423794 -15.461136 0.945300 -12.481001 -31.573091 3.275238 37.153066 83.258957 32.876649 -1.100375 -14.341612 3.696476 -0.014639 -0.140154 -0.454346 -12.133177 -46.045512 14.290374 170.496439 77.200851 166.680931 -2.333726 -18.466388 1.236195 -0.080773 0.011501 -0.023347
-34.305410 50.712685 41.789242 177.693076 -34.374749 -9.520584 0.332813 13.555531 3.841695 0.079749 7.681104 2.162502 0.104409 9.590873 2.721852 0.080214 7.711337 2.167812 6.087461 19.061926 -1.634772 6.927407 -5.320734 -3.132324 0.649159 1.666294 -1.721140 -16.857335 -4.902982 7.186618 38.242370 -74.031394 -23.926738 11.267766 -5.851015 -11.451410 -8.585639 3.731200 -3.286558 6.819532 -2.031942 -3.415777 -69.123063 -75.243114 75.279717 11.457789 -15.549218 0.907613 -12.671383 -31.673970 3.194975 37.789637 83.334474 33.613738 -0.970008 -14.449992 3.598286 -0.047761 -0.102313 -0.457768 -12.203191 -46.152409 14.365846 171.124653 77.200752 167.168326 -2.373141 -18.484947 1.358482 -0.054023 0.007010 -0.010093
-34.327122 50.700289 41.760207 177.722885 -34.242053 -9.476990 0.321374 13.504521 3.800670 0.081380 7.651940 2.157451 0.123467 9.555001 2.706434 0.058366 7.672518 2.170997 6.086856 19.051083 -1.608254 6.908021 -5.333045 -3.107790 0.632901 1.622534 -1.728495 -16.845130 -4.877671 7.152168 38.563846 -73.964363 -24.163265 11.294554 -5.986244 -11.386660 -8.623085 3.683157 -3.277772 6.795136 -2.071891 -3.399032 -68.782046 -75.197370 74.958489 11.503380 -15.649018 0.857380 -12.827217 -31.794891 3.107877 38.750035 83.395562 34.671076 -0.868381 -14.562705 3.445708 -0.058507 -0.095273 -0.452822 -12.248840 -46.273429 14.434037 171.718177 77.198101 167.626350 -2.401301 -18.512475 1.477647 -0.051932 0.009852 -0.004850
-34.344537 50.683783 41.735687 177.716285 -34.073188 -9.423555 0.332488 13.415994 3.775123 0.084848 7.624513 2.152692 0.138698 9.524367 2.698179 0.046634 7.632194 2.160827 6.067858 19.047134 -1.579334 6.904561 -5.364678 -3.089712 0.622147 1.572471 -1.736098 -16.856966 -4.832173 7.142218 38.918599 -73.910621 -24.417087 11.314728 -6.104007 -11.339017 -8.663463 3.623375 -3.268922 6.763823 -2.115006 -3.381708 -68.588493 -75.155197 74.779815 11.532090 -15.643778 0.844725 -12.966203 -31.947620 3.045530 39.875392 83.438128 35.882466 -0.848273 -14.719935 3.324460 -0.020170 -0.046767 -0.455028 -12.288203 -46.430220 14.524065 172.247667 77.188523 168.037400 -2.460705 -18.552697 1.595968 -0.012550 0.017303 -0.002054
-34.358727 50.669383 41.708854 177.703528 -33.920889 -9.365870 0.345799 13.344933 3.751910 0.088696 7.599457 2.147727 0.156252 9.498411 2.692514 0.088679 7.599506 2.147751 5.999291 19.027185 -1.548491 6.905244 -5.401205 -3.069802 0.547041 1.535494 -1.724173 -16.813839 -4.859901 7.075115 38.938678 -73.871525 -24.375210 11.328003 -6.199922 -11.297335 -8.752714 3.565286 -3.251616 6.724487 -2.181832 -3.369267 -68.412392 -75.151261 74.609607 11.523924 -15.616255 0.848276 -13.098554 -32.080693 2.985002 41.013098 83.467334 37.090116 -0.827311 -14.926221 3.170249 -0.028313 0.035993 -0.324995 -12.298915 -46.579755 14.549092 172.497893 77.174755 168.226064 -2.484290 -18.579648 1.654079 -0.001358 0.018362 0.000483
